<svg width="30" height="30" viewBox="0 0 40 40" fill="none" xmlns="http://www.w3.org/2000/svg">
<path opacity="0.6" d="M10 36.6667H30C31.3261 36.6667 32.5979 36.1399 33.5355 35.2022C34.4732 34.2645 35 32.9928 35 31.6667V11.6667C35 10.7826 34.6488 9.93477 34.0237 9.30965C33.3986 8.68453 32.5507 8.33334 31.6667 8.33334H28.3333V5C28.3333 4.55798 28.1577 4.13405 27.8452 3.82149C27.5326 3.50893 27.1087 3.33334 26.6667 3.33334C26.2246 3.33334 25.8007 3.50893 25.4882 3.82149C25.1756 4.13405 25 4.55798 25 5V8.33334H15V5C15 4.55798 14.8244 4.13405 14.5118 3.82149C14.1993 3.50893 13.7754 3.33334 13.3333 3.33334C12.8913 3.33334 12.4674 3.50893 12.1548 3.82149C11.8423 4.13405 11.6667 4.55798 11.6667 5V8.33334H8.33333C7.44928 8.33334 6.60143 8.68453 5.97631 9.30965C5.35119 9.93477 5 10.7826 5 11.6667V31.6667C5 32.9928 5.52678 34.2645 6.46447 35.2022C7.40215 36.1399 8.67392 36.6667 10 36.6667ZM8.33333 20.8333C8.33333 20.6123 8.42113 20.4004 8.57741 20.2441C8.73369 20.0878 8.94565 20 9.16667 20H30.8333C31.0543 20 31.2663 20.0878 31.4226 20.2441C31.5789 20.4004 31.6667 20.6123 31.6667 20.8333V31.6667C31.6667 32.1087 31.4911 32.5326 31.1785 32.8452C30.866 33.1577 30.442 33.3333 30 33.3333H10C9.55797 33.3333 9.13405 33.1577 8.82149 32.8452C8.50893 32.5326 8.33333 32.1087 8.33333 31.6667V20.8333Z" fill="#444444"/>
</svg>