<svg width="100" height="100" viewBox="0 0 100 100" fill="none" xmlns="http://www.w3.org/2000/svg">
<path fill-rule="evenodd" clip-rule="evenodd" d="M18.7498 16.6667C19.9004 16.6667 20.8332 17.5995 20.8332 18.7501V79.1667C20.8332 83.769 24.5642 87.5001 29.1665 87.5001H72.9165C74.0671 87.5001 74.9998 88.4328 74.9998 89.5834C74.9998 90.734 74.0671 91.6667 72.9165 91.6667H29.1665C22.263 91.6667 16.6665 86.0703 16.6665 79.1667V18.7501C16.6665 17.5995 17.5993 16.6667 18.7498 16.6667Z" fill="#333333"/>
<path fill-rule="evenodd" clip-rule="evenodd" d="M83.3333 74.9999V29.1666L62.5 8.33325H33.3333C28.731 8.33325 25 12.0642 25 16.6666V74.9999C25 79.6022 28.731 83.3333 33.3333 83.3333H75C79.6023 83.3333 83.3333 79.6022 83.3333 74.9999ZM75.3575 27.0833L64.5833 16.3091V27.0833H75.3575ZM68.1398 47.3064C68.9533 46.4928 68.9533 45.1737 68.1398 44.3601C67.3262 43.5466 66.0071 43.5466 65.1935 44.3601L50 59.5537L43.1398 52.6935C42.3263 51.8799 41.0071 51.8799 40.1935 52.6935C39.38 53.507 39.38 54.8262 40.1935 55.6397L50 65.4462L68.1398 47.3064Z" fill="#333333"/>
</svg>
